<mxfile host="app.diagrams.net" agent="Mozilla/5.0 (Windows NT 10.0; Win64; x64) AppleWebKit/537.36 (KHTML, like Gecko) Chrome/130.0.0.0 Safari/537.36" version="24.8.3">
  <diagram name="Page-1" id="_TgkaefdaCbVhhmR3HBw">
    <mxGraphModel dx="896" dy="526" grid="1" gridSize="10" guides="1" tooltips="1" connect="1" arrows="1" fold="1" page="1" pageScale="1" pageWidth="850" pageHeight="1100" math="0" shadow="0">
      <root>
        <mxCell id="0" />
        <mxCell id="1" parent="0" />
        <mxCell id="VHD7gK2-Nl_4rJqmcwvM-1" value="" style="ellipse;html=1;shape=startState;fillColor=#000000;strokeColor=#ff0000;" vertex="1" parent="1">
          <mxGeometry x="560.5" y="280" width="30" height="30" as="geometry" />
        </mxCell>
        <mxCell id="VHD7gK2-Nl_4rJqmcwvM-2" value="" style="edgeStyle=orthogonalEdgeStyle;html=1;verticalAlign=bottom;endArrow=open;endSize=8;strokeColor=#ff0000;rounded=0;entryX=0.5;entryY=0;entryDx=0;entryDy=0;" edge="1" source="VHD7gK2-Nl_4rJqmcwvM-1" parent="1" target="VHD7gK2-Nl_4rJqmcwvM-11">
          <mxGeometry relative="1" as="geometry">
            <mxPoint x="525" y="370" as="targetPoint" />
          </mxGeometry>
        </mxCell>
        <mxCell id="VHD7gK2-Nl_4rJqmcwvM-11" value="idle" style="rounded=1;whiteSpace=wrap;html=1;" vertex="1" parent="1">
          <mxGeometry x="460" y="370" width="230" height="60" as="geometry" />
        </mxCell>
        <mxCell id="VHD7gK2-Nl_4rJqmcwvM-33" style="edgeStyle=orthogonalEdgeStyle;rounded=0;orthogonalLoop=1;jettySize=auto;html=1;entryX=0.5;entryY=0;entryDx=0;entryDy=0;endArrow=open;endFill=0;endSize=12;" edge="1" parent="1" source="VHD7gK2-Nl_4rJqmcwvM-12" target="VHD7gK2-Nl_4rJqmcwvM-32">
          <mxGeometry relative="1" as="geometry" />
        </mxCell>
        <mxCell id="VHD7gK2-Nl_4rJqmcwvM-34" value="[SoC = 0]" style="edgeLabel;html=1;align=center;verticalAlign=middle;resizable=0;points=[];" vertex="1" connectable="0" parent="VHD7gK2-Nl_4rJqmcwvM-33">
          <mxGeometry x="-0.0741" relative="1" as="geometry">
            <mxPoint as="offset" />
          </mxGeometry>
        </mxCell>
        <mxCell id="VHD7gK2-Nl_4rJqmcwvM-12" value="Discharging (normal rate)" style="rounded=1;whiteSpace=wrap;html=1;" vertex="1" parent="1">
          <mxGeometry x="460" y="520" width="230" height="60" as="geometry" />
        </mxCell>
        <mxCell id="VHD7gK2-Nl_4rJqmcwvM-13" value="" style="endArrow=open;endFill=1;endSize=12;html=1;rounded=0;entryX=0.75;entryY=0;entryDx=0;entryDy=0;exitX=0.75;exitY=1;exitDx=0;exitDy=0;" edge="1" parent="1" source="VHD7gK2-Nl_4rJqmcwvM-11" target="VHD7gK2-Nl_4rJqmcwvM-12">
          <mxGeometry width="160" relative="1" as="geometry">
            <mxPoint x="450" y="420" as="sourcePoint" />
            <mxPoint x="610" y="420" as="targetPoint" />
          </mxGeometry>
        </mxCell>
        <mxCell id="VHD7gK2-Nl_4rJqmcwvM-15" value="start to be discharged" style="edgeLabel;html=1;align=center;verticalAlign=middle;resizable=0;points=[];" vertex="1" connectable="0" parent="VHD7gK2-Nl_4rJqmcwvM-13">
          <mxGeometry x="-0.1158" y="-1" relative="1" as="geometry">
            <mxPoint as="offset" />
          </mxGeometry>
        </mxCell>
        <mxCell id="VHD7gK2-Nl_4rJqmcwvM-17" value="" style="endArrow=open;endFill=1;endSize=12;html=1;rounded=0;entryX=0.25;entryY=1;entryDx=0;entryDy=0;exitX=0.25;exitY=0;exitDx=0;exitDy=0;" edge="1" parent="1" source="VHD7gK2-Nl_4rJqmcwvM-12" target="VHD7gK2-Nl_4rJqmcwvM-11">
          <mxGeometry width="160" relative="1" as="geometry">
            <mxPoint x="560" y="500" as="sourcePoint" />
            <mxPoint x="720" y="500" as="targetPoint" />
          </mxGeometry>
        </mxCell>
        <mxCell id="VHD7gK2-Nl_4rJqmcwvM-18" value="[SoC = Threshold]" style="edgeLabel;html=1;align=center;verticalAlign=middle;resizable=0;points=[];" vertex="1" connectable="0" parent="VHD7gK2-Nl_4rJqmcwvM-17">
          <mxGeometry x="-0.4031" y="1" relative="1" as="geometry">
            <mxPoint as="offset" />
          </mxGeometry>
        </mxCell>
        <mxCell id="VHD7gK2-Nl_4rJqmcwvM-35" style="rounded=0;orthogonalLoop=1;jettySize=auto;html=1;exitX=0.5;exitY=1;exitDx=0;exitDy=0;entryX=0.25;entryY=0;entryDx=0;entryDy=0;endArrow=open;endFill=0;endSize=12;" edge="1" parent="1" source="VHD7gK2-Nl_4rJqmcwvM-19" target="VHD7gK2-Nl_4rJqmcwvM-32">
          <mxGeometry relative="1" as="geometry" />
        </mxCell>
        <mxCell id="VHD7gK2-Nl_4rJqmcwvM-36" value="[SoC = 0]" style="edgeLabel;html=1;align=center;verticalAlign=middle;resizable=0;points=[];" vertex="1" connectable="0" parent="VHD7gK2-Nl_4rJqmcwvM-35">
          <mxGeometry x="-0.0104" y="1" relative="1" as="geometry">
            <mxPoint as="offset" />
          </mxGeometry>
        </mxCell>
        <mxCell id="VHD7gK2-Nl_4rJqmcwvM-19" value="Discharging (low rate)" style="rounded=1;whiteSpace=wrap;html=1;" vertex="1" parent="1">
          <mxGeometry x="160" y="520" width="150" height="60" as="geometry" />
        </mxCell>
        <mxCell id="VHD7gK2-Nl_4rJqmcwvM-20" value="" style="endArrow=open;endFill=1;endSize=12;html=1;rounded=0;entryX=1;entryY=0.5;entryDx=0;entryDy=0;exitX=0;exitY=0.5;exitDx=0;exitDy=0;" edge="1" parent="1" source="VHD7gK2-Nl_4rJqmcwvM-12" target="VHD7gK2-Nl_4rJqmcwvM-19">
          <mxGeometry width="160" relative="1" as="geometry">
            <mxPoint x="460" y="520" as="sourcePoint" />
            <mxPoint x="620" y="520" as="targetPoint" />
          </mxGeometry>
        </mxCell>
        <mxCell id="VHD7gK2-Nl_4rJqmcwvM-21" value="[SoC &amp;lt; avg]" style="edgeLabel;html=1;align=center;verticalAlign=middle;resizable=0;points=[];" vertex="1" connectable="0" parent="VHD7gK2-Nl_4rJqmcwvM-20">
          <mxGeometry x="-0.0743" y="1" relative="1" as="geometry">
            <mxPoint as="offset" />
          </mxGeometry>
        </mxCell>
        <mxCell id="VHD7gK2-Nl_4rJqmcwvM-28" style="edgeStyle=orthogonalEdgeStyle;rounded=0;orthogonalLoop=1;jettySize=auto;html=1;exitX=1;exitY=0.5;exitDx=0;exitDy=0;entryX=0.75;entryY=1;entryDx=0;entryDy=0;endArrow=open;endFill=0;endSize=12;" edge="1" parent="1" source="VHD7gK2-Nl_4rJqmcwvM-12" target="VHD7gK2-Nl_4rJqmcwvM-12">
          <mxGeometry relative="1" as="geometry">
            <Array as="points">
              <mxPoint x="710" y="550" />
              <mxPoint x="710" y="610" />
              <mxPoint x="633" y="610" />
            </Array>
          </mxGeometry>
        </mxCell>
        <mxCell id="VHD7gK2-Nl_4rJqmcwvM-29" value="[SoC &amp;gt; avg]" style="edgeLabel;html=1;align=center;verticalAlign=middle;resizable=0;points=[];" vertex="1" connectable="0" parent="VHD7gK2-Nl_4rJqmcwvM-28">
          <mxGeometry x="-0.3883" y="1" relative="1" as="geometry">
            <mxPoint as="offset" />
          </mxGeometry>
        </mxCell>
        <mxCell id="VHD7gK2-Nl_4rJqmcwvM-30" style="edgeStyle=orthogonalEdgeStyle;rounded=0;orthogonalLoop=1;jettySize=auto;html=1;exitX=0.25;exitY=0;exitDx=0;exitDy=0;entryX=0;entryY=0.5;entryDx=0;entryDy=0;endArrow=open;endFill=0;endSize=12;" edge="1" parent="1" source="VHD7gK2-Nl_4rJqmcwvM-19" target="VHD7gK2-Nl_4rJqmcwvM-19">
          <mxGeometry relative="1" as="geometry">
            <Array as="points">
              <mxPoint x="198" y="490" />
              <mxPoint x="110" y="490" />
              <mxPoint x="110" y="550" />
            </Array>
          </mxGeometry>
        </mxCell>
        <mxCell id="VHD7gK2-Nl_4rJqmcwvM-31" value="[SoC &amp;lt; avg]" style="edgeLabel;html=1;align=center;verticalAlign=middle;resizable=0;points=[];" vertex="1" connectable="0" parent="VHD7gK2-Nl_4rJqmcwvM-30">
          <mxGeometry x="0.2535" y="-1" relative="1" as="geometry">
            <mxPoint as="offset" />
          </mxGeometry>
        </mxCell>
        <mxCell id="VHD7gK2-Nl_4rJqmcwvM-32" value="Empty" style="rounded=1;whiteSpace=wrap;html=1;" vertex="1" parent="1">
          <mxGeometry x="460.5" y="680" width="230" height="60" as="geometry" />
        </mxCell>
      </root>
    </mxGraphModel>
  </diagram>
</mxfile>
